<svg width="16" height="13" viewBox="0 0 16 13" fill="none" xmlns="http://www.w3.org/2000/svg">
    <path d="M13.8609 0.665479H2.13901C1.72651 0.665479 1.37703 0.808707 1.09058 1.09517C0.804118 1.38162 0.660889 1.72537 0.660889 2.12642V10.9264C0.660889 11.3275 0.804118 11.6741 1.09058 11.9663C1.37703 12.2584 1.72651 12.4045 2.13901 12.4045H13.8609C14.2734 12.4045 14.6229 12.2584 14.9093 11.9663C15.1958 11.6741 15.339 11.3275 15.339 10.9264V2.12642C15.339 1.72537 15.1958 1.38162 14.9093 1.09517C14.6229 0.808707 14.2734 0.665479 13.8609 0.665479ZM13.8609 2.12642V2.50454L7.99995 7.07642L2.13901 2.50454V2.12642H13.8609ZM2.13901 10.9264V4.36079L7.55308 8.57173C7.61037 8.61756 7.67912 8.6548 7.75933 8.68345C7.83953 8.71209 7.91974 8.72642 7.99995 8.72642C8.08016 8.72642 8.16037 8.71209 8.24058 8.68345C8.32078 8.6548 8.38953 8.61756 8.44683 8.57173L13.8609 4.36079V10.9264H2.13901Z" fill="#9397AD"/>
</svg>
